<svg width="21" height="20" viewBox="0 0 21 20" fill="none" xmlns="http://www.w3.org/2000/svg">
<g id="icon" clip-path="url(#clip0_52_115)">
<g id="Icons">
<path id="Vector" d="M5.00002 2.66667C5.08843 2.66667 5.17321 2.63155 5.23572 2.56904C5.29823 2.50653 5.33335 2.42174 5.33335 2.33334V1.00001C5.33335 0.9116 5.29823 0.826815 5.23572 0.764303C5.17321 0.701791 5.08843 0.666672 5.00002 0.666672C4.91161 0.666672 4.82683 0.701791 4.76432 0.764303C4.70181 0.826815 4.66669 0.9116 4.66669 1.00001V2.33334C4.66669 2.42174 4.70181 2.50653 4.76432 2.56904C4.82683 2.63155 4.91161 2.66667 5.00002 2.66667Z" fill="white"/>
<path id="Vector_2" d="M9.00002 2.66667C9.08843 2.66667 9.17321 2.63155 9.23572 2.56904C9.29823 2.50653 9.33335 2.42174 9.33335 2.33334V1.00001C9.33335 0.9116 9.29823 0.826815 9.23572 0.764303C9.17321 0.701791 9.08843 0.666672 9.00002 0.666672C8.91161 0.666672 8.82683 0.701791 8.76432 0.764303C8.70181 0.826815 8.66669 0.9116 8.66669 1.00001V2.33334C8.66669 2.42174 8.70181 2.50653 8.76432 2.56904C8.82683 2.63155 8.91161 2.66667 9.00002 2.66667Z" fill="white"/>
<path id="Vector_3" d="M17 2.66667C17.0884 2.66667 17.1732 2.63155 17.2357 2.56904C17.2982 2.50653 17.3334 2.42174 17.3334 2.33334V1.00001C17.3334 0.9116 17.2982 0.826815 17.2357 0.764303C17.1732 0.701791 17.0884 0.666672 17 0.666672C16.9116 0.666672 16.8268 0.701791 16.7643 0.764303C16.7018 0.826815 16.6667 0.9116 16.6667 1.00001V2.33334C16.6667 2.42174 16.7018 2.50653 16.7643 2.56904C16.8268 2.63155 16.9116 2.66667 17 2.66667Z" fill="white"/>
<path id="Vector_4" d="M13 2.66667C13.0884 2.66667 13.1732 2.63155 13.2357 2.56904C13.2982 2.50653 13.3334 2.42174 13.3334 2.33334V1.00001C13.3334 0.9116 13.2982 0.826815 13.2357 0.764303C13.1732 0.701791 13.0884 0.666672 13 0.666672C12.9116 0.666672 12.8268 0.701791 12.7643 0.764303C12.7018 0.826815 12.6667 0.9116 12.6667 1.00001V2.33334C12.6667 2.42174 12.7018 2.50653 12.7643 2.56904C12.8268 2.63155 12.9116 2.66667 13 2.66667Z" fill="white"/>
<path id="Vector_5" d="M12.3333 9.95033L10.6937 12H12.3333V9.95033Z" fill="white"/>
<path id="Vector_6" d="M1.66669 17.6667C1.66722 18.1085 1.84298 18.5322 2.15543 18.8446C2.46787 19.157 2.89149 19.3328 3.33335 19.3333H18.6667C19.1086 19.3328 19.5322 19.157 19.8446 18.8446C20.1571 18.5322 20.3328 18.1085 20.3334 17.6667V4.66667H1.66669V17.6667ZM14.6667 14V12.3333C14.6667 12.2449 14.7018 12.1601 14.7643 12.0976C14.8268 12.0351 14.9116 12 15 12C15.0884 12 15.1732 12.0351 15.2357 12.0976C15.2982 12.1601 15.3334 12.2449 15.3334 12.3333V13.0613C15.4401 13.0219 15.5529 13.0011 15.6667 13C15.9319 13 16.1863 13.1054 16.3738 13.2929C16.5613 13.4804 16.6667 13.7348 16.6667 14V14.3333C16.6667 14.4217 16.6316 14.5065 16.5691 14.569C16.5065 14.6316 16.4218 14.6667 16.3334 14.6667C16.2449 14.6667 16.1602 14.6316 16.0977 14.569C16.0351 14.5065 16 14.4217 16 14.3333V14C16 13.9116 15.9649 13.8268 15.9024 13.7643C15.8399 13.7018 15.7551 13.6667 15.6667 13.6667C15.5783 13.6667 15.4935 13.7018 15.431 13.7643C15.3685 13.8268 15.3334 13.9116 15.3334 14V14.3333C15.3334 14.4217 15.2982 14.5065 15.2357 14.569C15.1732 14.6316 15.0884 14.6667 15 14.6667C14.9116 14.6667 14.8268 14.6316 14.7643 14.569C14.7018 14.5065 14.6667 14.4217 14.6667 14.3333V14ZM9.73969 12.125L12.4064 8.79167C12.4495 8.73771 12.5084 8.69849 12.5748 8.67944C12.6412 8.66039 12.7119 8.66244 12.7771 8.68532C12.8423 8.7082 12.8987 8.75077 12.9387 8.80715C12.9786 8.86352 13.0001 8.93091 13 9.00001V12H13.6667C13.7551 12 13.8399 12.0351 13.9024 12.0976C13.9649 12.1601 14 12.2449 14 12.3333C14 12.4217 13.9649 12.5065 13.9024 12.569C13.8399 12.6316 13.7551 12.6667 13.6667 12.6667H13V14.3333C13 14.4217 12.9649 14.5065 12.9024 14.569C12.8399 14.6316 12.7551 14.6667 12.6667 14.6667C12.5783 14.6667 12.4935 14.6316 12.431 14.569C12.3685 14.5065 12.3334 14.4217 12.3334 14.3333V12.6667H10C9.93721 12.6667 9.87567 12.649 9.82249 12.6155C9.76932 12.5821 9.72667 12.5343 9.69946 12.4777C9.67225 12.4211 9.66159 12.358 9.66871 12.2956C9.67583 12.2332 9.70043 12.174 9.73969 12.125ZM7.26669 8.66667C7.93535 8.66667 9.20002 9.05501 9.20002 10.5237C9.20002 11.9153 7.74302 13.25 6.74569 14H9.66669C9.75509 14 9.83988 14.0351 9.90239 14.0976C9.9649 14.1601 10 14.2449 10 14.3333C10 14.4217 9.9649 14.5065 9.90239 14.569C9.83988 14.6316 9.75509 14.6667 9.66669 14.6667H5.66669C5.5937 14.6667 5.52274 14.6427 5.46468 14.5985C5.40663 14.5543 5.36469 14.4922 5.34531 14.4218C5.32593 14.3515 5.33018 14.2767 5.35741 14.209C5.38463 14.1413 5.43333 14.0844 5.49602 14.047C6.34069 13.5433 8.53335 11.9283 8.53335 10.5237C8.53335 9.37701 7.39502 9.33434 7.26669 9.33334C7.10334 9.32032 6.93907 9.34166 6.78447 9.39597C6.62986 9.45029 6.48834 9.53638 6.36902 9.64869C6.2497 9.76101 6.15522 9.89707 6.09167 10.0481C6.02812 10.1992 5.9969 10.3618 6.00002 10.5257C5.99923 10.6136 5.96376 10.6976 5.90133 10.7594C5.83891 10.8213 5.75458 10.856 5.66669 10.856C5.57857 10.8556 5.49421 10.8203 5.43206 10.7578C5.36991 10.6953 5.33502 10.6108 5.33502 10.5227C5.32991 10.2711 5.37698 10.0211 5.47325 9.78859C5.56952 9.55606 5.71291 9.346 5.89439 9.17164C6.07586 8.99727 6.29148 8.86238 6.52767 8.77548C6.76385 8.68857 7.01548 8.65152 7.26669 8.66667Z" fill="white"/>
<path id="Vector_7" d="M18.6667 2H18V2.33333C18 2.59855 17.8947 2.8529 17.7071 3.04044C17.5196 3.22798 17.2652 3.33333 17 3.33333C16.7348 3.33333 16.4805 3.22798 16.2929 3.04044C16.1054 2.8529 16 2.59855 16 2.33333V2H14V2.33333C14 2.59855 13.8947 2.8529 13.7071 3.04044C13.5196 3.22798 13.2652 3.33333 13 3.33333C12.7348 3.33333 12.4805 3.22798 12.2929 3.04044C12.1054 2.8529 12 2.59855 12 2.33333V2H10V2.33333C10 2.59855 9.89466 2.8529 9.70713 3.04044C9.51959 3.22798 9.26524 3.33333 9.00002 3.33333C8.7348 3.33333 8.48045 3.22798 8.29291 3.04044C8.10538 2.8529 8.00002 2.59855 8.00002 2.33333V2H6.00002V2.33333C6.00002 2.59855 5.89466 2.8529 5.70713 3.04044C5.51959 3.22798 5.26524 3.33333 5.00002 3.33333C4.7348 3.33333 4.48045 3.22798 4.29291 3.04044C4.10538 2.8529 4.00002 2.59855 4.00002 2.33333V2H3.33335C2.89149 2.00053 2.46787 2.17629 2.15543 2.48874C1.84298 2.80119 1.66722 3.2248 1.66669 3.66667V4H20.3334V3.66667C20.3328 3.2248 20.1571 2.80119 19.8446 2.48874C19.5322 2.17629 19.1086 2.00053 18.6667 2Z" fill="white"/>
</g>
</g>
<defs>
<clipPath id="clip0_52_115">
<rect width="20" height="20" fill="white" transform="translate(0.5)"/>
</clipPath>
</defs>
</svg>
