<svg xmlns="http://www.w3.org/2000/svg" width="26" height="27" viewBox="0 0 26 27" fill="none">
  <path d="M10.5625 14.7637H14.6282V11.5137H6.12787L7.35962 8.75605C7.48881 8.45705 7.78212 8.26367 8.10712 8.26367H13.1202C12.9634 7.44223 12.961 6.66467 13.1235 5.82617H8.10712C6.8055 5.82617 5.63306 6.59967 5.12037 7.79567L3.35887 11.9069C2.33269 12.4537 1.625 13.5222 1.625 14.7637V16.3887C1.625 17.5863 2.28312 18.623 3.25 19.1869V22.0762C3.25 22.9724 3.97881 23.7012 4.875 23.7012H7.3125C8.20869 23.7012 8.9375 22.9724 8.9375 22.0762V19.6387H14.6282V16.3887H10.5625C10.114 16.3887 9.75 16.0247 9.75 15.5762C9.75 15.1277 10.114 14.7637 10.5625 14.7637ZM6.09375 17.6074C4.97169 17.6074 4.0625 16.6982 4.0625 15.5762C4.0625 14.4541 4.97169 13.5449 6.09375 13.5449C7.21581 13.5449 8.125 14.4541 8.125 15.5762C8.125 16.6982 7.21581 17.6074 6.09375 17.6074Z" fill="white"/>
  <path d="M24.3116 6.21372C23.9761 4.29053 22.3624 2.91496 21.4378 2.63465C21.2818 2.58753 21.1283 2.71103 21.1283 2.87353V6.94984C21.1283 7.25778 20.9544 7.5389 20.6789 7.67622L19.8664 8.08247C19.6373 8.19703 19.3684 8.19703 19.1401 8.08247L18.3276 7.67622C18.0521 7.5389 17.8782 7.25696 17.8782 6.94984V2.87353C17.8782 2.71021 17.7239 2.58671 17.5671 2.63465C16.6416 2.92146 15.0288 4.31815 14.6957 6.22509C14.4097 7.86309 15.0239 9.4694 15.9933 10.4395C16.1525 10.5988 16.2524 10.8043 16.2524 11.0294V22.077C16.2524 23.871 17.7068 25.3253 19.5008 25.3253C21.2948 25.3253 22.7492 23.871 22.7492 22.077L22.7516 11.0335C22.7516 10.806 22.8548 10.5963 23.0157 10.4347C23.9915 9.45965 24.5968 7.84603 24.3116 6.21372ZM19.5073 23.2949C18.8346 23.2949 18.2886 22.7489 18.2886 22.0762C18.2886 21.4034 18.8346 20.8574 19.5073 20.8574C20.1801 20.8574 20.7261 21.4034 20.7261 22.0762C20.7261 22.7489 20.1801 23.2949 19.5073 23.2949Z" fill="white"/>
</svg>