<svg xmlns="http://www.w3.org/2000/svg" width="26" height="27" viewBox="0 0 26 27" fill="none">
  <g clip-path="url(#clip0_390_1421)">
    <path fill-rule="evenodd" clip-rule="evenodd" d="M1.44685 16.9289C1.27931 16.9289 1.14222 16.7918 1.14222 16.6243C1.14222 16.3349 1.14222 15.9693 1.12699 15.6038C1.0813 14.0502 1.00514 12.0092 1.59917 10.7754C4.03619 11.3847 7.11293 11.4913 9.33672 11.5218H9.77843L9.13871 12.8774C8.95593 13.1058 8.78839 13.3952 8.66654 13.6999L8.68177 13.6694H7.37187C6.99108 13.6694 6.67122 13.974 6.67122 14.3548V14.9945C6.67122 15.3753 6.99108 15.6799 7.37187 15.6799H8.25529C8.22483 16.0912 8.20959 16.5177 8.19436 16.9289H1.44685ZM8.48376 14.2634C8.42283 14.5223 8.36191 14.7965 8.31621 15.0707H7.37187C7.31094 15.0707 7.28048 15.0402 7.28048 14.9945V14.3548C7.28048 14.3091 7.31094 14.2786 7.37187 14.2786H8.48376V14.2634ZM4.32559 15.5276C3.4574 15.5276 2.77198 14.827 2.77198 13.974C2.77198 13.1211 3.4574 12.4204 4.32559 12.4204C5.17855 12.4204 5.86396 13.1211 5.86396 13.974C5.86396 14.827 5.17855 15.5276 4.32559 15.5276ZM4.32559 13.0297C3.79249 13.0297 3.36601 13.4409 3.36601 13.974C3.36601 14.4919 3.79249 14.9184 4.32559 14.9184C4.84346 14.9184 5.26993 14.4919 5.26993 13.974C5.26993 13.4409 4.84346 13.0297 4.32559 13.0297ZM1.94949 10.2423L3.47263 7.04373V7.0285C4.32559 5.56629 5.84873 5.68814 6.0772 5.7186H12.3068C12.5201 5.68814 14.0585 5.56629 14.8962 7.0285C14.9114 7.0285 14.9114 7.04373 14.9114 7.04373L15.3836 8.049H13.7995C13.7081 8.049 13.6167 8.03377 13.5254 8.03377C12.3373 8.03377 11.2711 8.61257 10.6618 9.66353C10.6466 9.69399 10.6466 9.69399 10.6314 9.72446L10.0678 10.9125C9.79366 10.9125 9.4738 10.9125 9.33672 10.9125C7.21955 10.8973 4.27989 10.7907 1.94949 10.2423Z" fill="white"/>
    <path fill-rule="evenodd" clip-rule="evenodd" d="M4.24942 19.2594H2.31503C1.67531 19.2594 1.14221 18.7263 1.14221 18.0866V17.4773C1.2336 17.5078 1.34022 17.5382 1.44684 17.5382L1.46207 17.523H5.407V18.0866C5.407 18.7263 4.88914 19.2594 4.24942 19.2594Z" fill="white"/>
    <path fill-rule="evenodd" clip-rule="evenodd" d="M1.35549 10.09L0.609148 9.8768C0.167437 9.75494 -0.0914965 9.19138 0.0303548 8.62782C0.136975 8.15565 0.487297 7.82056 0.898545 7.82056C0.95947 7.82056 1.03563 7.82056 1.11178 7.85102L2.07136 8.15565C2.13229 8.17088 2.17798 8.21657 2.22368 8.26227L1.35549 10.09Z" fill="white"/>
    <path fill-rule="evenodd" clip-rule="evenodd" d="M24.6443 19.8685H9.15395C8.9864 19.8685 8.86455 19.7315 8.86455 19.5639C8.86455 19.2745 8.84932 18.909 8.83409 18.5434C8.78839 16.868 8.71223 14.6289 9.4738 13.4409C11.9108 14.0806 14.7896 14.4309 17.0438 14.4614H17.059C19.2524 14.4309 22.0397 13.9283 24.2787 13.3647C25.086 14.5071 25.0251 16.8223 24.9641 18.5434C24.9489 18.909 24.9489 19.2745 24.9489 19.5639C24.9489 19.7315 24.8118 19.8685 24.6443 19.8685ZM12.0327 18.4673C11.1797 18.4673 10.4791 17.7666 10.4791 16.9137C10.4791 16.0607 11.1797 15.3601 12.0327 15.3601C12.8856 15.3601 13.5863 16.0607 13.5863 16.9137C13.5863 17.7666 12.8856 18.4673 12.0327 18.4673ZM18.7497 18.6196H15.079C14.6982 18.6196 14.3935 18.3149 14.3935 17.9342V17.2944C14.3935 16.9137 14.6982 16.609 15.079 16.609H18.7497C19.1153 16.609 19.4351 16.9137 19.4351 17.2944V17.9342C19.4351 18.3149 19.1153 18.6196 18.7497 18.6196ZM15.079 17.2183C15.0333 17.2183 14.9876 17.2487 14.9876 17.2944V17.9342C14.9876 17.9799 15.0333 18.0255 15.079 18.0255H18.7497C18.7954 18.0255 18.8259 17.9799 18.8259 17.9342V17.2944C18.8259 17.2487 18.7954 17.2183 18.7497 17.2183H15.079ZM21.7808 18.4673C20.9278 18.4673 20.2424 17.7666 20.2424 16.9137C20.2424 16.0607 20.9278 15.3601 21.7808 15.3601C22.649 15.3601 23.3344 16.0607 23.3344 16.9137C23.3344 17.7666 22.649 18.4673 21.7808 18.4673ZM21.7808 15.9693C21.2629 15.9693 20.8364 16.3958 20.8364 16.9137C20.8364 17.4315 21.2629 17.858 21.7808 17.858C22.3139 17.858 22.7404 17.4315 22.7404 16.9137C22.7404 16.3958 22.3139 15.9693 21.7808 15.9693ZM12.0327 15.9693C11.5148 15.9693 11.0883 16.3958 11.0883 16.9137C11.0883 17.4315 11.5148 17.858 12.0327 17.858C12.5505 17.858 12.977 17.4315 12.977 16.9137C12.977 16.3958 12.5505 15.9693 12.0327 15.9693ZM9.79366 12.9078L11.1797 9.98337C11.1797 9.98337 11.1797 9.96814 11.195 9.96814C11.8804 8.76486 13.0532 8.64301 13.5254 8.64301C13.6472 8.64301 13.7386 8.65824 13.7843 8.65824H20.0139C20.0596 8.65824 20.151 8.64301 20.2729 8.64301C20.745 8.64301 21.9179 8.76486 22.6185 9.96814V9.98337L23.9589 12.8164C21.8112 13.3647 19.1457 13.8369 17.0438 13.8521C14.8962 13.8369 12.1241 13.5018 9.79366 12.9078Z" fill="white"/>
    <path fill-rule="evenodd" clip-rule="evenodd" d="M23.7762 22.1989H21.8418C21.202 22.1989 20.6689 21.6658 20.6689 21.0261V20.4778H24.6443C24.751 20.4778 24.8423 20.4473 24.949 20.4169V21.0261C24.949 21.6658 24.4159 22.1989 23.7762 22.1989Z" fill="white"/>
    <path fill-rule="evenodd" clip-rule="evenodd" d="M11.9566 22.1989H10.0222C9.38249 22.1989 8.86462 21.6658 8.86462 21.0261V20.4169C8.95601 20.4473 9.0474 20.4778 9.15402 20.4778H13.1294V21.0261C13.1294 21.6658 12.5963 22.1989 11.9566 22.1989Z" fill="white"/>
    <path fill-rule="evenodd" clip-rule="evenodd" d="M23.7305 10.9125C23.7609 10.8211 23.8371 10.7449 23.9285 10.7145L24.8881 10.4099C24.9642 10.3946 25.0251 10.3794 25.1013 10.3794C25.4973 10.3794 25.8476 10.7145 25.9695 11.1867C26.0913 11.7502 25.8324 12.3138 25.3907 12.4356L24.553 12.6641L23.7305 10.9125Z" fill="white"/>
  </g>
  <defs>
    <clipPath id="clip0_390_1421">
      <rect width="26" height="26" fill="white" transform="translate(-0.00012207 0.951172)"/>
    </clipPath>
  </defs>
</svg>