<svg width="21" height="20" viewBox="0 0 21 20" fill="none" xmlns="http://www.w3.org/2000/svg">
<g clip-path="url(#clip0_52_97)">
<path d="M19.2141 17.8572C19.6637 17.8572 20.0533 17.7087 20.3844 17.4156L14.7181 11.7491C14.5821 11.8464 14.4504 11.9411 14.3259 12.0311C13.9019 12.3435 13.5577 12.5873 13.2934 12.762C13.0292 12.9371 12.6776 13.1156 12.2388 13.2978C11.7996 13.4802 11.3905 13.5711 11.011 13.5711H10.9999H10.9888C10.6092 13.5711 10.2001 13.4803 9.76097 13.2978C9.32186 13.1156 8.9703 12.9371 8.70632 12.762C8.44208 12.5873 8.0981 12.3436 7.67385 12.0311C7.55562 11.9444 7.4245 11.8493 7.28274 11.7476L1.61533 17.4156C1.94645 17.7087 2.33625 17.8572 2.78578 17.8572H19.2141Z" fill="white"/>
<path d="M2.12735 8.18085C1.70335 7.89817 1.32735 7.57442 1 7.20975V15.8309L5.99427 10.8367C4.99513 10.1391 3.7078 9.25486 2.12735 8.18085Z" fill="white"/>
<path d="M19.8839 8.18085C18.3638 9.20977 17.0718 10.0955 16.0077 10.8386L21 15.8311V7.20975C20.6799 7.56709 20.308 7.89062 19.8839 8.18085Z" fill="white"/>
<path d="M19.2141 2.14282H2.78582C2.21268 2.14282 1.77205 2.33636 1.46337 2.72304C1.15443 3.1099 1.00022 3.59371 1.00022 4.17392C1.00022 4.64259 1.20487 5.1504 1.61398 5.6975C2.0231 6.24438 2.45844 6.67395 2.91977 6.9864C3.17268 7.16509 3.93536 7.69531 5.20781 8.57687C5.89471 9.05287 6.49206 9.46776 7.00539 9.82579C7.44294 10.1307 7.82029 10.3947 8.13184 10.6138C8.1676 10.6389 8.22385 10.6791 8.2985 10.7325C8.37893 10.7902 8.48071 10.8636 8.60628 10.9542C8.84807 11.1291 9.04895 11.2705 9.20893 11.3785C9.3687 11.4865 9.56228 11.6071 9.78937 11.7411C10.0163 11.8749 10.2303 11.9756 10.4312 12.0425C10.6321 12.1094 10.8181 12.1429 10.9892 12.1429H11.0003H11.0114C11.1824 12.1429 11.3685 12.1094 11.5694 12.0425C11.7702 11.9756 11.9841 11.8752 12.2112 11.7411C12.438 11.6071 12.6314 11.4862 12.7916 11.3785C12.9516 11.2705 13.1525 11.1291 13.3943 10.9542C13.5196 10.8636 13.6214 10.7902 13.7019 10.7327C13.7765 10.6791 13.8328 10.6391 13.8687 10.6138C14.1114 10.4449 14.4897 10.182 14.9982 9.82888C15.9234 9.18599 17.2861 8.23976 19.092 6.9864C19.6351 6.60706 20.0888 6.14929 20.4535 5.61373C20.8175 5.07818 21 4.51641 21 3.9286C21 3.4375 20.8231 3.01727 20.4699 2.66726C20.1164 2.3177 19.6978 2.14282 19.2141 2.14282Z" fill="white"/>
</g>
<defs>
<clipPath id="clip0_52_97">
<rect width="20" height="20" fill="white" transform="translate(0.5)"/>
</clipPath>
</defs>
</svg>
