<svg xmlns="http://www.w3.org/2000/svg" width="37" height="41" viewBox="0 0 37 41" fill="none">
  <g clip-path="url(#clip0_390_1506)">
    <path d="M35.9763 5.83282L17.9834 0.5L0.00588989 5.83282V6.85297C0.0705966 10.5626 0.48215 14.258 1.23517 17.891C1.05664 16.9014 0.569524 12.9943 2.79345 7.88332L17.9834 3.38192L33.1862 7.88842C32.9592 11.1554 33.3112 15.9884 27.1418 18.9111C21.378 21.6451 18.9271 21.6273 18.9271 21.6273C18.0348 20.8776 16.9137 20.4544 15.7486 20.4273C14.5836 20.4002 13.444 20.771 12.5179 21.4784C11.5918 22.1858 10.9343 23.1876 10.6539 24.3188C10.3735 25.4499 10.4869 26.6429 10.9754 27.7009C11.4639 28.759 12.2984 29.619 13.3412 30.1393C14.384 30.6595 15.573 30.8089 16.7121 30.5628C17.8512 30.3167 18.8725 29.6898 19.6075 28.7855C20.3426 27.8812 20.7476 26.7534 20.7557 25.588C32.2375 20.7142 36.8001 17.0034 35.9763 5.83282ZM18.5598 27.1922L17.5958 27.6767L17.0373 28.6L15.9738 28.4266L14.9791 28.8474L14.214 28.0823L13.1658 27.8272L13 26.7612L12.2961 25.945L12.7883 24.9861L12.6965 23.9124L13.6606 23.4253L14.2191 22.502L15.2826 22.678L16.2772 22.2572L17.0424 23.0223L18.0931 23.2774L18.2563 24.3434L18.9628 25.1595L18.468 26.1185L18.5598 27.1922Z" fill="#FF3D24"/>
    <path d="M33.2364 21.8364C32.1963 25.1903 30.7034 28.3865 28.7988 31.3365C26.0597 35.4681 22.6116 38.4775 18.5463 40.2628L17.9903 40.5051C17.9903 40.5051 12.3234 38.7836 7.18183 31.3365C2.04029 23.8894 4.13924 17.4344 9.54348 14.0858C15.1058 10.6403 15.1543 10.7295 15.1543 10.7295C15.1605 9.81964 15.409 8.92784 15.8741 8.14578C16.3392 7.36373 17.0041 6.71963 17.8006 6.27971C18.5971 5.83978 19.4964 5.6199 20.406 5.64266C21.3156 5.66541 22.2028 5.92999 22.9763 6.40919L18.8319 8.93406L18.6814 11.5048L20.737 13.0555L25.3456 11.5252C25.2081 12.4246 24.8339 13.2712 24.2613 13.9782C23.6887 14.6852 22.9384 15.2272 22.0872 15.5486C21.2361 15.8699 20.3148 15.9591 19.4178 15.8069C18.5208 15.6547 17.6804 15.2667 16.9829 14.6826C16.9829 14.6826 16.4575 14.6826 12.3922 16.8479C4.5269 21.0687 7.75057 32.5352 17.9826 37.4574C18.1561 37.4217 18.3321 37.3809 18.4927 37.335C24.4529 35.8481 29.268 31.1529 33.2364 21.8364Z" fill="#FF3D24"/>
  </g>
  <defs>
    <clipPath id="clip0_390_1506">
      <rect width="36.0699" height="40" fill="white" transform="translate(0 0.5)"/>
    </clipPath>
  </defs>
</svg>