<svg width="101" height="40" viewBox="0 0 101 40" fill="none" xmlns="http://www.w3.org/2000/svg">
<g clip-path="url(#clip0_365_2446)">
<path d="M35.9763 5.33527L17.9834 0.00244141L0.00588989 5.33527V6.35541C0.0705966 10.065 0.48215 13.7605 1.23517 17.3934C1.05664 16.4039 0.569524 12.4967 2.79345 7.38576L17.9834 2.88436L33.1862 7.39086C32.9592 10.6579 33.3112 15.4908 27.1418 18.4136C21.378 21.1476 18.9271 21.1297 18.9271 21.1297C18.0348 20.3801 16.9137 19.9568 15.7486 19.9297C14.5836 19.9027 13.444 20.2734 12.5179 20.9808C11.5918 21.6882 10.9343 22.6901 10.6539 23.8212C10.3735 24.9524 10.4869 26.1453 10.9754 27.2034C11.4639 28.2614 12.2984 29.1215 13.3412 29.6417C14.384 30.162 15.573 30.3113 16.7121 30.0653C17.8512 29.8192 18.8725 29.1923 19.6075 28.2879C20.3426 27.3836 20.7476 26.2558 20.7557 25.0904C32.2375 20.2167 36.8001 16.5059 35.9763 5.33527ZM18.5598 26.6946L17.5958 27.1792L17.0373 28.1024L15.9738 27.929L14.9791 28.3498L14.214 27.5847L13.1658 27.3297L13 26.2636L12.2961 25.4475L12.7883 24.4885L12.6965 23.4148L13.6606 22.9277L14.2191 22.0045L15.2826 22.1805L16.2772 21.7596L17.0424 22.5248L18.0931 22.7798L18.2563 23.8458L18.9628 24.662L18.468 25.6209L18.5598 26.6946Z" fill="#FF3D24"/>
<path d="M33.2364 21.3389C32.1963 24.6928 30.7034 27.889 28.7988 30.839C26.0597 34.9706 22.6116 37.9801 18.5463 39.7653L17.9903 40.0076C17.9903 40.0076 12.3234 38.2861 7.18183 30.839C2.04029 23.3919 4.13924 16.9369 9.54348 13.5883C15.1058 10.1428 15.1543 10.232 15.1543 10.232C15.1605 9.32214 15.409 8.43034 15.8741 7.64828C16.3392 6.86623 17.0041 6.22213 17.8006 5.78221C18.5971 5.34228 19.4964 5.1224 20.406 5.14516C21.3156 5.16792 22.2028 5.43249 22.9763 5.9117L18.8319 8.43657L18.6814 11.0073L20.737 12.558L25.3456 11.0277C25.2081 11.9271 24.8339 12.7737 24.2613 13.4807C23.6887 14.1877 22.9384 14.7297 22.0872 15.0511C21.2361 15.3724 20.3148 15.4616 19.4178 15.3094C18.5208 15.1572 17.6804 14.7692 16.9829 14.1851C16.9829 14.1851 16.4575 14.1851 12.3922 16.3504C4.5269 20.5712 7.75057 32.0377 17.9826 36.9599C18.1561 36.9242 18.3321 36.8834 18.4927 36.8375C24.4529 35.3506 29.268 30.6554 33.2364 21.3389Z" fill="#FF3D24"/>
</g>
<path d="M47.9701 23.0685V13.7257C47.9701 10.7698 49.4481 9.29179 52.404 9.29179H59.4507L61.219 10.6642V12.7228H52.5624C52.0345 12.7228 51.7706 12.9867 51.7706 13.5146V23.2797C51.7706 23.8075 52.0345 24.0714 52.5624 24.0714H61.219V26.13L59.4507 27.5024H52.404C49.4481 27.5024 47.9701 26.0245 47.9701 23.0685ZM64.5451 27.5024V15.362C65.1609 14.3063 66.3045 13.7785 67.9761 13.7785H70.6153L71.671 14.5702V15.6259H68.2664C67.5274 15.6259 66.9907 15.8283 66.6564 16.233V27.5024H64.5451ZM77.4589 27.5024C74.8021 27.5024 73.4737 26.174 73.4737 23.5172C73.4737 20.8604 74.8021 19.532 77.4589 19.532H82.2887V17.4734C82.2887 16.2417 81.6729 15.6259 80.4412 15.6259H74.7933V14.5702L75.849 13.7785H80.4412C83.0805 13.7785 84.4001 15.0981 84.4001 17.7373V27.5024H77.4589ZM75.5851 23.8075C75.5851 25.0392 76.2009 25.655 77.4325 25.655H82.2887V21.2475H77.4325C76.2009 21.2475 75.5851 21.8633 75.5851 23.0949V23.8075ZM87.9892 26.7107V25.655H94.0858C95.2999 25.655 95.9069 25.0392 95.9069 23.8075C95.9069 22.5583 95.423 21.8545 94.4553 21.6961L91.3146 21.1683C89.0977 20.7988 87.9892 19.5936 87.9892 17.5526C87.9892 15.0365 89.3088 13.7785 91.948 13.7785H96.3556L97.4112 14.5702V15.6259H91.9217C90.69 15.6259 90.0742 16.2417 90.0742 17.4734C90.0742 18.5819 90.5932 19.2241 91.6313 19.4L94.772 19.9279C96.9538 20.2798 98.0447 21.5378 98.0447 23.702C98.0447 26.2356 96.7075 27.5024 94.033 27.5024H89.0449L87.9892 26.7107Z" fill="white"/>
<defs>
<clipPath id="clip0_365_2446">
<rect width="36.0699" height="40" fill="white" transform="translate(0 0.00244141)"/>
</clipPath>
</defs>
</svg>
