<svg width="16" height="17" viewBox="0 0 16 17" fill="none" xmlns="http://www.w3.org/2000/svg">
<g clip-path="url(#clip0_365_2391)">
<path d="M15.9833 4.94233C15.9459 4.09218 15.8084 3.50772 15.6114 3.00127C15.4083 2.46369 15.0957 1.9824 14.6862 1.58229C14.2861 1.17596 13.8016 0.860229 13.2703 0.660239C12.7609 0.463301 12.1795 0.325823 11.3294 0.28834C10.4729 0.247682 10.201 0.238281 8.02866 0.238281C5.85636 0.238281 5.58446 0.247682 4.73114 0.285165C3.881 0.322648 3.29654 0.460248 2.79021 0.657064C2.25251 0.860229 1.77121 1.17279 1.37111 1.58229C0.964783 1.9824 0.649169 2.46687 0.449057 2.99822C0.252119 3.50772 0.114641 4.08901 0.0771582 4.93915C0.0365009 5.79564 0.0270996 6.06754 0.0270996 8.23984C0.0270996 10.4121 0.0365009 10.684 0.0739838 11.5374C0.111467 12.3875 0.249067 12.972 0.446005 13.4784C0.649169 14.016 0.964783 14.4973 1.37111 14.8974C1.77121 15.3037 2.25568 15.6195 2.78704 15.8195C3.29654 16.0164 3.87783 16.1539 4.72809 16.1913C5.58129 16.229 5.85331 16.2382 8.02561 16.2382C10.1979 16.2382 10.4698 16.229 11.3231 16.1913C12.1733 16.1539 12.7577 16.0164 13.2641 15.8195C14.3393 15.4037 15.1895 14.5536 15.6052 13.4784C15.802 12.9689 15.9396 12.3875 15.9771 11.5374C16.0146 10.684 16.024 10.4121 16.024 8.23984C16.024 6.06754 16.0208 5.79564 15.9833 4.94233ZM14.5425 11.4749C14.5081 12.2563 14.3768 12.6782 14.2674 12.9595C13.9986 13.6566 13.4454 14.2098 12.7483 14.4786C12.467 14.588 12.042 14.7193 11.2637 14.7536C10.4198 14.7912 10.1667 14.8005 8.03184 14.8005C5.89702 14.8005 5.64075 14.7912 4.79988 14.7536C4.01848 14.7193 3.59652 14.588 3.31522 14.4786C2.96835 14.3504 2.65261 14.1472 2.39634 13.8816C2.13066 13.6221 1.9275 13.3096 1.7993 12.9627C1.6899 12.6814 1.55865 12.2563 1.52434 11.478C1.48674 10.6341 1.47746 10.3809 1.47746 8.24607C1.47746 6.11125 1.48674 5.85498 1.52434 5.01424C1.55865 4.23284 1.6899 3.81088 1.7993 3.52957C1.9275 3.18258 2.13066 2.86697 2.39951 2.61057C2.65884 2.34489 2.9714 2.14173 3.31839 2.01365C3.5997 1.90426 4.02483 1.773 4.80306 1.73857C5.64697 1.70109 5.9002 1.69169 8.03489 1.69169C10.1729 1.69169 10.426 1.70109 11.2668 1.73857C12.0482 1.773 12.4702 1.90426 12.7515 2.01365C13.0984 2.14173 13.4141 2.34489 13.6704 2.61057C13.9361 2.87002 14.1392 3.18258 14.2674 3.52957C14.3768 3.81088 14.5081 4.23589 14.5425 5.01424C14.58 5.85815 14.5894 6.11125 14.5894 8.24607C14.5894 10.3809 14.58 10.6309 14.5425 11.4749Z" fill="white"/>
<path d="M8.02864 4.12988C5.75951 4.12988 3.91846 5.97082 3.91846 8.24006C3.91846 10.5093 5.75951 12.3502 8.02864 12.3502C10.2979 12.3502 12.1388 10.5093 12.1388 8.24006C12.1388 5.97082 10.2979 4.12988 8.02864 4.12988ZM8.02864 10.9062C6.55655 10.9062 5.36246 9.71227 5.36246 8.24006C5.36246 6.76785 6.55655 5.57389 8.02864 5.57389C9.50085 5.57389 10.6948 6.76785 10.6948 8.24006C10.6948 9.71227 9.50085 10.9062 8.02864 10.9062Z" fill="white"/>
<path d="M13.261 3.96735C13.261 4.49724 12.8313 4.92689 12.3013 4.92689C11.7714 4.92689 11.3418 4.49724 11.3418 3.96735C11.3418 3.43734 11.7714 3.00781 12.3013 3.00781C12.8313 3.00781 13.261 3.43734 13.261 3.96735Z" fill="white"/>
</g>
<defs>
<clipPath id="clip0_365_2391">
<rect width="16" height="16" fill="white" transform="translate(-0.000976562 0.238281)"/>
</clipPath>
</defs>
</svg>
