<svg width="16" height="17" viewBox="0 0 16 17" fill="none" xmlns="http://www.w3.org/2000/svg">
<g clip-path="url(#clip0_365_2387)">
<path d="M15.995 16.9761L15.999 16.9754L15.999 11.1074C15.999 8.23672 15.381 6.02539 12.025 6.02539C10.4117 6.02539 9.32899 6.91072 8.88699 7.75006H8.84033V6.29339L5.65833 6.29339L5.65833 16.9754H8.97166L8.97166 11.6861C8.97166 10.2934 9.23566 8.94672 10.9603 8.94672C12.6597 8.94672 12.685 10.5361 12.685 11.7754L12.685 16.9761H15.995Z" fill="white"/>
<path d="M0.263062 6.29395L3.5804 6.29395L3.5804 16.9759H0.263062L0.263062 6.29395Z" fill="white"/>
<path d="M1.92036 0.975586C0.85969 0.975586 -0.000976563 1.83625 -0.000976563 2.89692C-0.000976563 3.95759 0.85969 4.83625 1.92036 4.83625C2.98102 4.83625 3.84169 3.95759 3.84169 2.89692C3.84102 1.83625 2.98036 0.975586 1.92036 0.975586Z" fill="white"/>
</g>
<defs>
<clipPath id="clip0_365_2387">
<rect width="16" height="16" fill="white" transform="translate(-0.000976562 0.975586)"/>
</clipPath>
</defs>
</svg>
