<svg width="17" height="17" viewBox="0 0 17 17" fill="none" xmlns="http://www.w3.org/2000/svg">
<g id="linkedin (1) 1" clip-path="url(#clip0_64_135)">
<path id="Vector" d="M16.5 0.324375L16.4993 0.320374L10.6313 0.320374C7.76068 0.320374 5.54935 0.938375 5.54935 4.29437C5.54935 5.90771 6.43468 6.99037 7.27401 7.43237L7.27401 7.47904L5.81735 7.47904L5.81735 10.661L16.4993 10.661L16.4993 7.34771L11.21 7.34771C9.81735 7.34771 8.47068 7.08371 8.47068 5.35904C8.47068 3.65971 10.06 3.63437 11.2993 3.63437L16.5 3.63437L16.5 0.324375Z" fill="white"/>
<path id="Vector_2" d="M5.81799 16.0564L5.81799 12.739L16.5 12.739L16.5 16.0564L5.81799 16.0564Z" fill="white"/>
<path id="Vector_3" d="M0.5 14.399C0.5 15.4597 1.36067 16.3204 2.42133 16.3204C3.482 16.3204 4.36067 15.4597 4.36067 14.399C4.36067 13.3384 3.482 12.4777 2.42133 12.4777C1.36067 12.4784 0.5 13.339 0.5 14.399Z" fill="white"/>
</g>
<defs>
<clipPath id="clip0_64_135">
<rect width="16" height="16" fill="white" transform="translate(0.5 16.3204) rotate(-90)"/>
</clipPath>
</defs>
</svg>
