<svg xmlns="http://www.w3.org/2000/svg" width="21" height="20" viewBox="0 0 21 20" fill="none">
  <path d="M10.5 0C6.98574 0 4.05469 2.83086 4.05469 6.44531C4.05469 7.82039 4.46789 9.04656 5.2609 10.1955L10.0068 17.601C10.237 17.961 10.7635 17.9603 10.9932 17.601L15.7597 10.1704C16.5356 9.07344 16.9453 7.78543 16.9453 6.44531C16.9453 2.89137 14.0539 0 10.5 0ZM10.5 9.375C8.88465 9.375 7.57031 8.06066 7.57031 6.44531C7.57031 4.82996 8.88465 3.51562 10.5 3.51562C12.1154 3.51562 13.4297 4.82996 13.4297 6.44531C13.4297 8.06066 12.1154 9.375 10.5 9.375Z" fill="white"/>
  <path d="M15.0806 13.4646L12.1302 18.0774C11.3665 19.2681 9.62926 19.2642 8.86922 18.0786L5.91398 13.4659C3.31383 14.067 1.71094 15.1683 1.71094 16.4844C1.71094 18.768 6.23938 20 10.5 20C14.7606 20 19.2891 18.768 19.2891 16.4844C19.2891 15.1674 17.6839 14.0655 15.0806 13.4646Z" fill="white"/>
</svg>