<svg width="21" height="21" viewBox="0 0 21 21" fill="none" xmlns="http://www.w3.org/2000/svg">
<g id="icon" clip-path="url(#clip0_52_70)">
<path id="Vector" d="M18.7613 13.6277C17.5368 13.6277 16.3345 13.4362 15.1952 13.0597C14.6369 12.8693 13.9506 13.044 13.6099 13.3939L11.3611 15.0915C8.75312 13.6994 7.14666 12.0934 5.77354 9.50505L7.42119 7.31484C7.84927 6.88734 8.00281 6.26286 7.81885 5.67693C7.44072 4.53161 7.24864 3.3299 7.24864 2.1049C7.24869 1.21995 6.52875 0.5 5.64385 0.5H1.97093C1.08604 0.5 0.366089 1.21995 0.366089 2.10484C0.366089 12.2481 8.61807 20.5 18.7613 20.5C19.6462 20.5 20.3661 19.7801 20.3661 18.8952V15.2325C20.3661 14.3477 19.6461 13.6277 18.7613 13.6277Z" fill="white"/>
</g>
<defs>
<clipPath id="clip0_52_70">
<rect width="20" height="20" fill="white" transform="translate(0.366089 0.5)"/>
</clipPath>
</defs>
</svg>
