<svg xmlns="http://www.w3.org/2000/svg" width="26" height="27" viewBox="0 0 26 27" fill="none">
  <g clip-path="url(#clip0_390_1409)">
    <path d="M13 0.951172C5.85965 0.951172 0 6.81082 0 13.9512C0 21.0915 5.85965 26.9512 13 26.9512C20.1404 26.9512 26 21.0915 26 13.9512C26 6.81082 20.1404 0.951172 13 0.951172ZM15.1831 21.1658C15.0606 21.3915 14.193 22.6679 13.6338 23.5143C13.4041 23.8593 12.9337 23.9617 12.5774 23.7255C12.2271 23.492 12.1326 23.0196 12.3662 22.6692L13.1001 21.5684H11.4766C11.4764 21.5684 11.4764 21.5683 11.4762 21.5683C11.4761 21.5683 11.476 21.5684 11.4759 21.5684C11.4754 21.5684 11.4748 21.5679 11.4744 21.5679C10.8934 21.566 10.5117 20.8808 10.8428 20.3841L12.3663 18.099C12.5983 17.7479 13.0715 17.6541 13.4226 17.8877C13.7729 18.1213 13.8674 18.5936 13.6338 18.944L12.8999 20.0449H14.5234C15.0779 20.0449 15.4608 20.6574 15.1831 21.1658ZM18.9115 19.8977C18.5269 20.0591 18.0776 19.8813 17.9132 19.493C17.0764 17.5143 15.1475 16.2363 13 16.2363C10.8525 16.2363 8.92364 17.5143 8.08676 19.493C7.92269 19.8818 7.47444 20.0609 7.0885 19.8977C6.70094 19.734 6.52021 19.287 6.68383 18.8994C7.70291 16.4897 9.98603 14.9064 12.5712 14.7447L15.4131 10.4818C15.6459 10.1307 16.1168 10.037 16.4694 10.2705C16.8197 10.5041 16.9142 10.9765 16.6806 11.3268L14.3268 14.8576C16.5322 15.2916 18.417 16.7735 19.3162 18.8994C19.4798 19.2869 19.2991 19.734 18.9115 19.8977ZM22.1228 17.8036C21.9588 18.1888 21.5145 18.3716 21.1237 18.2076C20.7369 18.0432 20.5561 17.5961 20.7198 17.2085C21.0572 16.4132 21.2253 15.5713 21.3032 14.7128H20.6172C20.1962 14.7128 19.8555 14.3721 19.8555 13.9511C19.8555 13.5301 20.1962 13.1894 20.6172 13.1894H21.3403C21.2521 12.2158 20.9929 11.293 20.5992 10.4435L19.9775 10.8023C19.6171 11.0105 19.1497 10.8909 18.9368 10.5234C18.7263 10.1589 18.8513 9.69321 19.2158 9.48273L19.8371 9.12411C19.2855 8.34528 18.6059 7.66567 17.8271 7.11409L17.4684 7.73539C17.2559 8.10234 16.7887 8.22284 16.4278 8.01434C16.0633 7.8038 15.9383 7.33818 16.1488 6.97368L16.5077 6.35201C15.6581 5.9582 14.7354 5.69907 13.7618 5.61086V6.33398C13.7618 6.75501 13.4211 7.0957 13.0001 7.0957C12.579 7.0957 12.2383 6.75501 12.2383 6.33398V5.61086C11.2647 5.69912 10.342 5.95825 9.49244 6.35201L9.85126 6.97368C10.0618 7.33818 9.93682 7.80385 9.57232 8.01434C9.21187 8.22254 8.74453 8.1029 8.53166 7.73539L8.17304 7.11409C7.39421 7.66567 6.7146 8.34528 6.16302 9.12411L6.78432 9.48273C7.14883 9.69327 7.2738 10.1589 7.06327 10.5234C6.8507 10.8903 6.38356 11.0108 6.02261 10.8023L5.40094 10.4435C5.00713 11.293 4.748 12.2158 4.65979 13.1894H5.38281C5.80384 13.1894 6.14453 13.5301 6.14453 13.9511C6.14453 14.3721 5.80384 14.7128 5.38281 14.7128H4.69676C4.77466 15.5712 4.94279 16.4132 5.28013 17.2085C5.4438 17.5961 5.26302 18.0432 4.87622 18.2076C4.49013 18.3697 4.04234 18.1919 3.8772 17.8036C3.36025 16.5823 3.09766 15.2864 3.09766 13.9512C3.09766 8.5123 7.55244 4.04883 13 4.04883C18.3934 4.04883 22.9023 8.45557 22.9023 13.9512C22.9023 15.2864 22.6398 16.5823 22.1228 17.8036Z" fill="white"/>
  </g>
  <defs>
    <clipPath id="clip0_390_1409">
      <rect width="26" height="26" fill="white" transform="translate(0 0.951172)"/>
    </clipPath>
  </defs>
</svg>